PathFileType	4	(X/Y/Z)	C:/Users/beibeiliu/ov580/test_trc\sequence.40_training_dense_left.trc
DataRate	CameraRate	NumFrames	NumMarkers	Units	OrigDataRate	OrigDataStartFrame	OrigNumFrames
120	120	24	19	mm	120	101	400
Frame#	Time	ThumbCMC			ThumbMCP			ThumbIP			ThumbTip			IndexMCP			IndexPIP			IndexTip			MiddleMCP			MiddlePIP			MiddleTip			RingMCP			RingPIP			RingTip			PinkyMCP			PinkyPIP			PinkyTip			BackHand1			BackHand2			BackHand3	
		X0	Y0	Z0	X1	Y1	Z1	X2	Y2	Z2	X3	Y3	Z3	X4	Y4	Z4	X5	Y5	Z5	X6	Y6	Z6	X7	Y7	Z7	X8	Y8	Z8	X9	Y9	Z9	X10	Y10	Z10	X11	Y11	Z11	X12	Y12	Z12	X13	Y13	Z13	X14	Y14	Z14	X15	Y15	Z15	X16	Y16	Z16	X17	Y17	Z17	X18	Y18	Z18	
100	0.833333	-188.066	32.458	43.9796	-173.52	24.5091	11.7514	-172.995	16.1102	-8.28921	-175.168	3.23459	-28.3185	-220.676	39.7875	-14.642	-217.636	32.2364	-38.8609	-202.028	14.7286	-57.8881	-232.946	19.4688	-21.0604	-220.262	8.14146	-41.7686	-191.589	-8.40532	-40.6125	-242.649	7.15517	-7.3734	-236.059	0.104833	-31.9877	-215.68	-13.2305	-46.2963	-248.44	-11.1406	8.13182	-249.789	-13.4344	-13.3881	-244.128	-21.382	-33.354	-239.447	13.4255	38.4634	-229.498	15.6175	65.6398	-219.709	37.238	46.1451	
101	0.841667	-188.788	33.7371	38.1658	-176.951	21.9549	14.5243	-176.73	14.0258	-7.9707	-177.438	2.50906	-27.5953	-220.643	39.8307	-15.7281	-216.472	32.9826	-39.099	-201.894	12.454	-58.1096	-232.278	20.543	-16.9019	-218.597	4.50339	-41.8592	-196.023	-12.297	-39.556	-243.131	7.59152	-9.05757	-235.71	-4.25461	-34.8087	-217.019	-13.8103	-45.5252	-248.912	-10.4729	8.0718	-249.779	-12.927	-12.4642	-243.602	-23.905	-34.1917	-239.543	14.6676	39.1207	-232.369	13.5605	61.2232	-222.307	39.1393	43.2191	
102	0.85	-188.424	34.4867	38.0132	-175.869	23.4808	10.256	-175.428	13.9571	-8.76958	-177.693	0.953172	-28.2695	-220.586	41.0125	-19.1847	-215.438	32.241	-41.7608	-203.66	14.8877	-55.9574	-234.007	18.5872	-19.8507	-218.325	8.86772	-42.9214	-194.835	-11.3927	-40.3931	-244.003	4.4279	-8.31893	-234.852	-2.33005	-34.5879	-217.218	-15.5638	-45.8139	-246.822	-8.65208	8.33075	-248.984	-13.6321	-15.823	-243.617	-25.3517	-34.3397	-240.19	13.1096	37.6899	-231.06	16.8421	60.4191	-224.18	36.4901	43.4988	
103	0.858333	-191.191	31.7668	39.0868	-177.561	23.4627	13.2207	-173.523	15.266	-9.46512	-177.413	1.81836	-29.4796	-223.137	38.323	-17.5435	-217.016	29.3589	-42.447	-200.72	13.7906	-57.4496	-233.433	19.249	-19.5614	-218.733	5.00458	-42.7314	-196.171	-9.3976	-41.2874	-242.877	6.87259	-9.7767	-235.682	-1.60338	-33.7958	-215.147	-15.2878	-45.9354	-248.791	-9.10834	6.37828	-249.313	-13.8983	-16.3769	-243.785	-23.5468	-36.7434	-239.468	12.5486	36.6204	-232.188	15.7189	60.1804	-224.284	35.209	43.4957	
104	0.866667	-190.668	32.595	41.7589	-179.11	23.2525	12.0036	-174.352	15.3567	-10.2334	-178.923	1.87175	-31.6135	-222.854	38.9261	-17.4153	-217.089	27.4107	-42.6045	-201.695	10.8047	-57.55	-234.464	17.4134	-18.6567	-220.467	6.13888	-42.1093	-192.21	-10.961	-38.6551	-245.074	4.59173	-11.9453	-237.615	-1.35083	-32.506	-215.721	-13.2774	-45.8498	-246.834	-9.55406	9.57582	-250.292	-14.2213	-14.1097	-247.061	-24.6463	-33.5384	-242.111	12.0376	37.9259	-234.45	13.2038	66.1885	-221.175	36.5205	45.5837	
105	0.875	-192.488	32.7988	39.1251	-177.414	23.1614	13.649	-178.515	14.2376	-9.11319	-176.745	4.2539	-25.4248	-220.599	40.5679	-16.7542	-218.619	29.6066	-39.1997	-200.039	14.2492	-58.1944	-231.762	22.2992	-18.6896	-220.762	8.44316	-41.4892	-193.176	-8.92323	-40.5631	-243.226	6.42275	-6.01864	-235.422	-0.853064	-34.9168	-214.944	-14.1365	-47.1818	-248.969	-12.0768	8.55459	-252.313	-15.7713	-12.543	-246.125	-19.5701	-32.4311	-238.188	15.4987	38.5154	-232.029	16.1582	65.1591	-224.415	33.8262	42.6903	
106	0.883333	-187.547	35.0172	39.6686	-172.955	24.0865	14.2512	-175.705	14.3867	-10.0475	-179.583	0.682844	-30.0266	-220.842	39.9388	-19.4414	-215.894	31.1681	-41.92	-200.623	15.0828	-56.3307	-232.692	20.1482	-21.584	-219.472	7.6574	-41.0614	-193.538	-12.712	-38.9728	-242.758	6.9563	-6.88018	-237.621	-3.29695	-31.7853	-219.226	-14.6912	-44.6542	-248.901	-9.13234	4.68961	-252.84	-18.1981	-12.7503	-245.687	-25.4588	-35.7321	-239.338	12.37	36.976	-231.173	14.6703	65.6935	-220.428	37.3824	45.2885	
107	0.891667	-188.947	32.7859	41.0771	-177.038	22.9285	10.0693	-176.104	14.3463	-8.40992	-177.87	2.13246	-29.9299	-219.867	41.4939	-16.3639	-216.037	30.7627	-41.3488	-200.806	13.1529	-55.4757	-232.205	19.3503	-21.6783	-217.08	6.47635	-42.3361	-196.033	-10.9726	-39.9382	-243.505	4.89234	-9.07748	-239.221	-4.99968	-32.0214	-216.866	-12.7993	-45.8154	-249.229	-9.29175	6.3423	-250.635	-15.16	-12.6877	-243.974	-21.7791	-34.0123	-240.429	11.934	37.817	-231.175	14.6614	64.7669	-223.193	38.2507	44.3603	
108	0.9	-189.366	34.1626	40.7316	-178.953	22.6172	12.3057	-175.228	15.319	-9.48134	-176.266	3.13558	-26.7415	-219.946	41.2167	-17.5411	-215.027	30.8848	-42.0601	-195.403	14.8415	-56.8488	-231.052	21.7817	-22.6811	-215.583	5.53918	-42.7998	-191.216	-9.85294	-38.9366	-244.058	4.43922	-12.4659	-238.001	-4.44639	-32.7956	-215.487	-14.1662	-45.2115	-248.801	-10.3091	5.75128	-250.988	-17.7027	-15.9176	-245.01	-19.6421	-33.8536	-239.432	14.9568	37.2005	-233.102	17.0071	62.2478	-223.018	35.9711	42.2391	
109	0.908333	-191.241	34.573	38.5984	-174.357	26.5197	12.0798	-175.413	15.6494	-7.95853	-177.838	3.20233	-28.8142	-220.785	38.5222	-19.0033	-214.774	31.8719	-39.8949	-197.699	17.3724	-54.0172	-231.004	21.6582	-17.7893	-216.237	7.15832	-42.9528	-194.65	-10.8406	-38.4469	-243.055	6.50833	-10.6101	-234.119	-3.3322	-35.0729	-218.004	-13.6836	-44.8921	-249.878	-10.6782	5.31374	-249.095	-13.2469	-16.6537	-244.326	-22.2136	-35.1085	-238.648	13.2853	40.0669	-233.052	17.7913	64.7577	-222.787	38.3571	45.745	
110	0.916667	-188.119	37.073	42.4778	-174.421	27.2734	10.4233	-175.588	17.1385	-9.17028	-179.872	4.86109	-26.1868	-220.252	40.6123	-17.4019	-213.606	28.7896	-41.5031	-197.443	17.5867	-53.74	-229.973	22.5239	-20.8736	-216.27	6.55348	-42.027	-187.946	-9.59928	-36.6108	-241.781	8.9377	-9.97267	-235.297	-0.579093	-33.5329	-216.854	-12.8441	-46.0911	-246.979	-7.50886	5.7399	-248.29	-12.8543	-14.8368	-241.419	-18.631	-33.2621	-238.785	13.1098	39.8872	-233.075	16.1276	65.0313	-222.565	40.0873	45.7229	
111	0.925	-189.869	37.7134	41.7059	-175.051	27.8968	17.2127	-173.86	20.1428	-5.84574	-173.767	8.53283	-25.8174	-219.812	42.3795	-17.0773	-214.627	32.6309	-40.1824	-194.963	16.3872	-53.3683	-229.897	25.2509	-21.1172	-217.67	9.29807	-40.8921	-189.556	-8.19002	-37.4994	-241.777	6.87344	-9.86184	-235.762	-1.34825	-33.5864	-216.395	-10.6531	-46.1228	-246.466	-9.36928	9.38624	-249.7	-13.9708	-12.7846	-241.375	-21.1519	-37.17	-238.548	15.9622	34.7195	-231.77	18.0572	63.5727	-223.773	37.0271	47.03	
112	0.933333	-188.165	40.9245	43.1033	-174.746	29.9471	14.2662	-173.724	21.3707	-6.13827	-172.491	8.82654	-26.8748	-219.874	44.6055	-16.1532	-210.93	36.2675	-42.3484	-192.535	18.8852	-54.8685	-232.509	22.5448	-17.1387	-218.027	15.4756	-42.1422	-192.343	-1.6504	-43.1523	-241.007	7.99193	-11.6095	-234.319	0.756679	-33.7374	-214.851	-6.74657	-46.9548	-245.202	-8.33313	3.76344	-245.283	-11.1649	-13.3945	-236.203	-18.1301	-36.1044	-237.87	14.0373	39.0115	-232.117	17.9959	61.3325	-225.406	39.5773	44.9871	
113	0.941667	-189.855	43.2385	39.1675	-175.331	33.4105	16.1702	-171.949	23.8571	-7.26367	-172.847	9.88326	-27.6205	-221.3	44.5306	-15.6311	-213.115	35.4607	-43.1901	-194.183	22.1375	-56.0843	-233.66	21.8959	-22.1332	-220.646	17.0271	-43.3741	-191.22	-2.47048	-46.5071	-240.656	8.84772	-12.7489	-232.625	2.58694	-33.6908	-212.419	-8.44483	-49.7244	-242.488	-9.37249	6.03944	-242.778	-16.0351	-17.6958	-232.627	-21.2841	-37.5813	-237.572	18.0593	35.5123	-233.716	15.6843	63.2317	-224.189	40.539	46.6343	
114	0.95	-192.293	43.1195	43.3649	-177.428	33.9367	11.8427	-174.735	24.3084	-9.4526	-174.733	9.93131	-23.6963	-223.142	45.7433	-17.034	-213.79	37.1357	-42.6351	-199.349	23.3419	-54.9365	-232.582	26.8941	-19.4717	-220.322	14.0237	-45.7769	-198.966	4.49801	-53.9144	-241.248	5.94355	-13.3275	-232.959	1.54059	-33.0066	-214.817	-5.74132	-49.0223	-239.221	-7.74246	6.50588	-238.544	-12.7894	-16.305	-228.568	-21.4356	-34.9532	-236.126	14.444	39.1256	-233.848	14.8899	59.7186	-227.417	38.91	46.6906	
115	0.958333	-194.793	43.6003	40.0632	-177.725	36.0819	16.253	-173.25	25.2133	-9.65743	-175.049	10.0108	-24.2153	-223.712	45.8722	-16.7803	-214.327	37.5484	-44.2133	-197.84	28.1482	-56.1145	-235.46	22.7759	-20.2518	-223.479	12.25	-46.5302	-202.112	5.15526	-56.5896	-238.152	8.53589	-9.5057	-229.874	0.378087	-37.9934	-212.147	-5.13576	-50.0578	-238.99	-10.8811	2.02429	-234.363	-18.0039	-16.5499	-220.558	-18.8581	-36.6046	-237.391	13.763	35.842	-233.404	18.0757	60.2533	-225.795	42.7352	43.0746	
116	0.966667	-195.68	46.1512	42.0796	-179.449	37.1894	10.5583	-174.035	27.3853	-7.33022	-178.406	8.28204	-23.2536	-225.254	42.9379	-16.7004	-219.021	35.9521	-41.177	-197.752	26.9231	-56.8178	-236.814	21.9695	-18.3211	-226.642	16.4804	-47.1947	-203.924	2.6779	-58.9874	-238.579	4.97091	-9.48074	-230.221	0.466961	-37.0463	-213.727	-7.29713	-51.1398	-235.238	-10.2691	0.796307	-231.172	-18.7931	-16.7342	-216.733	-21.6298	-35.3518	-238.656	16.7881	35.2545	-236.076	15.0694	60.8205	-229.172	42.1828	45.2753	
117	0.975	-196.066	48.121	40.912	-178.141	40.2433	9.36141	-176.305	28.2377	-7.18317	-178.29	9.63889	-22.1752	-227.957	41.0839	-19.6587	-217.605	37.0858	-43.8	-197.395	26.7584	-57.1309	-237.538	21.3492	-18.3545	-229.531	13.2915	-44.7734	-207.685	3.35802	-59.7161	-237.038	6.94766	-11.4625	-231.915	1.75949	-33.7514	-212.459	-5.86091	-51.6212	-233.298	-13.1372	3.88062	-226.083	-18.0132	-18.2353	-210.989	-17.6598	-36.3457	-238.548	13.9534	33.0819	-231.737	18.6874	62.5506	-231.612	37.8647	42.5215	
118	0.983333	-199.46	46.9749	39.1279	-181.401	39.9006	9.1855	-180.518	26.3329	-8.19122	-176.767	8.16017	-24.4591	-228.511	44.3176	-19.5068	-217.958	37.7075	-44.7336	-199.075	28.0818	-56.424	-236.76	23.7213	-18.9542	-229.638	17.9631	-45.3316	-206.259	6.03172	-61.8335	-238.361	2.60478	-13.8803	-231.741	-1.86112	-34.8254	-211.458	-6.15127	-53.8268	-231.742	-12.0659	2.60133	-225.295	-16.9532	-17.3968	-207.938	-14.121	-34.9502	-239.2	12.1782	36.4872	-233.769	16.4983	62.4515	-229.797	41.8619	44.8889	
119	0.991667	-200.743	47.9363	38.2736	-181.577	42.2324	8.56431	-179.741	27.1792	-10.8927	-180.781	5.87402	-22.1512	-228.188	45.6222	-16.9495	-220.079	39.1071	-42.7167	-197.722	28.893	-57.051	-238.57	20.996	-20.5443	-228.338	14.6425	-48.5479	-204.717	5.84702	-64.3562	-238.638	4.4623	-12.8325	-230.122	1.50322	-36.5992	-213.287	-5.52967	-51.6191	-230.717	-10.6165	0.74897	-221.23	-16.2206	-18.5578	-202.211	-11.4372	-32.8875	-240.991	12.7622	32.8243	-235.425	15.6027	59.8055	-233.309	39.4789	45.1698	
120	1	-199.758	52.1509	39.6633	-183.746	42.3287	13.5203	-181.084	26.9062	-7.48534	-180.598	9.77211	-18.9257	-229.805	42.7037	-20.8212	-220.511	36.6554	-41.9901	-198.987	30.7164	-57.143	-237.9	20.6963	-17.3615	-228.77	15.4077	-47.3117	-208.452	5.89347	-61.8076	-237.008	7.30248	-8.90124	-230.843	1.10898	-33.9458	-210.899	-6.13933	-53.2291	-229.041	-8.56289	-1.68751	-217.545	-12.1134	-21.0691	-203.289	-12.9444	-31.0834	-239.364	12.6376	36.9633	-234.594	16.2705	60.6443	-233.048	43.5134	39.9165	
121	1.00833	-199.379	53.2918	38.5152	-182.209	43.8234	13.9047	-180.479	29.3268	-8.02125	-182.488	5.87396	-22.2802	-229.502	40.6364	-19.7698	-220.221	35.299	-42.0642	-195.536	25.3027	-55.6038	-237.936	20.6933	-22.1127	-230.772	18.3768	-45.1987	-210.142	4.84882	-62.1955	-237.169	2.52571	-9.57416	-230.214	-3.38396	-34.7821	-211.96	-6.59048	-51.2533	-229.974	-11.1829	2.45136	-219.21	-15.6496	-17.9512	-200.129	-14.5767	-29.1213	-238.645	14.4585	33.2626	-234.374	17.1245	62.5094	-234.112	42.7024	43.0315	
122	1.01667	-201.339	49.8482	42.2216	-184.958	43.0427	12.3996	-179.792	28.8584	-10.829	-182.783	7.50198	-22.0487	-230.042	41.6813	-20.8527	-220.319	36.6473	-40.7119	-198.028	31.1313	-53.712	-238.966	21.1973	-19.6299	-230.322	16.959	-45.719	-207.099	9.17784	-63.5046	-237.76	2.57199	-11.4949	-229.953	-2.83833	-35.6844	-212.608	-6.18655	-49.4376	-229.559	-12.6135	-1.45783	-218.884	-14.2359	-17.1098	-198.205	-9.22899	-27.6642	-239.837	11.6264	33.3274	-236.77	17.9521	62.7144	-233.015	43.8037	43.3329	
123	1.025	-200.923	53.6	38.9368	-184.95	43.2649	10.0212	-182.845	28.1247	-8.59327	-180.115	9.15738	-20.8096	-229.555	44.6548	-17.6924	-217.942	34.44	-42.8041	-191.807	29.4794	-52.2757	-238.498	22.5691	-18.9774	-230.368	13.2748	-44.554	-208.338	9.58166	-62.106	-236.506	6.57807	-7.50718	-228.575	-1.64671	-34.3949	-208.74	-3.19879	-50.0104	-229.068	-9.58297	4.17055	-216.495	-11.4883	-17.0459	-197.52	-12.3397	-26.4301	-238.448	12.1677	39.0159	-235.876	19.9767	60.5899	-234.663	40.1761	46.6903	
